<svg xmlns="http://www.w3.org/2000/svg" enable-background="new 0 0 24 24" viewBox="0 0 24 24"><path fill="#37474F" d="M2.27,3.081c-0.155,0.023-0.302,0.585-0.6,0.878C1.45,4.17,1.18,4.158,1.034,4.419C0.979,4.516,0.997,4.683,0.935,4.843c-0.122,0.321-0.55,0.348-0.55,0.697C0.384,5.917,0.741,5.988,1.053,6.256C1.296,6.47,1.318,6.619,1.612,6.723c0.123,0.042,0.275-0.004,0.437-0.049C2.219,6.627,2.4,6.58,2.571,6.631c0.276,0.081,0.54,0.139,0.602,0.42C3.228,7.309,3.17,7.71,2.836,7.664C2.723,7.651,2.233,7.489,1.635,7.551C0.909,7.633,0.084,7.867,0.003,8.667c-0.045,0.447,0.514,0.974,1.053,0.867c0.373-0.073,0.197-0.508,0.398-0.72C1.721,8.543,3.228,9.759,4.63,9.759c0.59,0,1.028-0.148,1.465-0.6l0.155-0.113l0.196,0.087c1.129,0.898,1.983,2.7,6.131,2.721c0.584,0.004,1.248,0.279,1.791,0.769c0.484,0.443,0.768,1.133,1.042,1.832c0.416,1.049,1.159,2.07,2.287,3.206l1.066,0.828c0.012,0.008,0.08,0.169,0.055,0.259c-0.028,0.681-0.128,2.662,1.364,2.751c0.364,0.019,0.269-0.236,0.269-0.41c-0.001-0.345-0.064-0.688,0.119-1.041c0.251-0.486-0.532-0.709-0.51-1.76c0.017-0.783-0.648-0.65-0.985-1.246c-0.193-0.346-0.366-0.529-0.354-0.952c0.076-2.379-0.511-3.942-0.804-4.326c-0.229-0.29-0.418-0.405-0.208-0.539c1.243-0.814,1.526-1.571,1.526-1.571c0.662-1.54,1.257-2.947,2.078-3.567c0.165-0.128,0.589-0.442,0.849-0.564c0.768-0.358,1.171-0.574,1.392-0.789c0.351-0.339,0.63-1.048,0.293-1.477c-0.42-0.53-1.146-0.109-1.466,0.079c-2.288,1.344-2.625,3.716-3.418,5.078c-0.634,1.089-1.661,1.888-2.58,1.953c-0.69,0.051-1.433-0.087-2.171-0.409c-1.8-0.781-2.783-1.789-3.017-1.967c-0.482-0.368-4.235-4.015-7.274-4.165c0,0-0.378-0.748-0.473-0.76C3.228,3.039,3,3.513,2.837,3.569c-0.079,0.027-0.185-0.108-0.29-0.243C2.446,3.198,2.345,3.069,2.27,3.081L2.27,3.081z"/><path fill="#303E45" d="M3.43,3.066c-0.215,0-0.435,0.448-0.593,0.503C2.83,3.571,2.823,3.572,2.816,3.572c-0.076,0-0.173-0.123-0.269-0.246C2.45,3.203,2.354,3.08,2.28,3.08c-0.003,0-0.007,0-0.01,0.001c-0.155,0.023-0.302,0.585-0.6,0.878C1.45,4.17,1.18,4.158,1.034,4.419C0.979,4.516,0.997,4.683,0.935,4.843c-0.122,0.321-0.55,0.348-0.55,0.697C0.384,5.917,0.741,5.988,1.053,6.256C1.296,6.47,1.318,6.619,1.612,6.723c0.034,0.012,0.07,0.016,0.109,0.016c0.099,0,0.211-0.033,0.328-0.065c0.118-0.032,0.24-0.065,0.362-0.065c0.054,0,0.107,0.006,0.16,0.022c0.276,0.081,0.54,0.139,0.602,0.42c0.052,0.245,0.002,0.617-0.287,0.617c-0.016,0-0.033-0.001-0.051-0.004C2.741,7.653,2.38,7.537,1.912,7.537c-0.089,0-0.182,0.004-0.277,0.014C0.909,7.633,0.084,7.867,0.003,8.667c-0.041,0.407,0.419,0.881,0.909,0.881c0.048,0,0.096-0.005,0.144-0.014c0.373-0.073,0.197-0.508,0.398-0.72C1.481,8.787,1.52,8.775,1.571,8.775c0.452,0,1.798,0.984,3.059,0.984c0.59,0,1.028-0.148,1.465-0.6l0.155-0.113l0.196,0.087c1.075,0.855,1.9,2.529,5.555,2.706V8.661c-0.431-0.33-0.696-0.587-0.804-0.669c-0.482-0.368-4.235-4.015-7.274-4.165c0,0-0.378-0.748-0.473-0.76C3.443,3.066,3.436,3.066,3.43,3.066L3.43,3.066z"/></svg>